# xmcd
#
# Track frame offsets:
#	150
#	16725
#	34974
#	57815
#	71920
#	91575
#	108870
#	146610
#	168922
#	185980
#	199075
#	232135
#	250952
#	270939
#
# Disc length: 3864 seconds
#
# Revision: 1
# Processed by: cddbd v1.5.2PL0 Copyright (c) Steve Scherf et al.
# Submitted via: audiograbber 1.83.01
#
DISCID=c00f160e
DTITLE=Hot Shot Blues Band - Show Me That You Like It
DYEAR=2008
DGENRE=Blues
TTITLE0=Nothin' But The Blues
TTITLE1=Pimp My Ride
TTITLE2=Big Legged Woman
TTITLE3=I Can't Be Satisfied
TTITLE4=Show Me That You Like It
TTITLE5=It's Too Loud
TTITLE6=The King Of The World
TTITLE7=How Long Will You Treat Me Like A Dog?
TTITLE8=Like An Addiction
TTITLE9=Not Too Fast
TTITLE10=Luckiest Man In The World
TTITLE11=Dirty Dog
TTITLE12=WWW.
TTITLE13=Latin Blues
EXTD=
EXTT0=
EXTT1=
EXTT2=
EXTT3=
EXTT4=
EXTT5=
EXTT6=
EXTT7=
EXTT8=
EXTT9=
EXTT10=
EXTT11=
EXTT12=
EXTT13=
PLAYORDER=
